<svg width="1280" height="640" viewBox="0 0 1280 640" fill="none" xmlns="http://www.w3.org/2000/svg">
<rect width="1280" height="640" fill="#0D1117"/>
<path d="M93.5909 235V141.909H113.273V180.318H153.227V141.909H172.864V235H153.227V196.545H113.273V235H93.5909ZM188.727 235V165.182H208.091V235H188.727ZM198.455 156.182C195.576 156.182 193.106 155.227 191.045 153.318C189.015 151.379 188 149.061 188 146.364C188 143.697 189.015 141.409 191.045 139.5C193.106 137.561 195.576 136.591 198.455 136.591C201.333 136.591 203.788 137.561 205.818 139.5C207.879 141.409 208.909 143.697 208.909 146.364C208.909 149.061 207.879 151.379 205.818 153.318C203.788 155.227 201.333 156.182 198.455 156.182ZM244.648 222.273L244.148 227.273C243.754 231.273 242.996 235.258 241.875 239.227C240.784 243.227 239.633 246.848 238.42 250.091C237.239 253.333 236.284 255.879 235.557 257.727H223.011C223.466 255.939 224.087 253.439 224.875 250.227C225.663 247.045 226.405 243.47 227.102 239.5C227.799 235.53 228.239 231.485 228.42 227.364L228.648 222.273H244.648ZM307.648 141.909V235H287.966V141.909H307.648ZM339.705 141.909V151.727C339.705 154.515 339.159 157.364 338.068 160.273C337.008 163.152 335.583 165.879 333.795 168.455C332.008 171 330.053 173.167 327.932 174.955L319.386 169.909C320.902 167.515 322.235 164.864 323.386 161.955C324.568 159.045 325.159 155.667 325.159 151.818V141.909H339.705ZM349.852 235V165.182H368.307V177.5H369.125C370.58 173.409 373.004 170.182 376.398 167.818C379.792 165.455 383.852 164.273 388.58 164.273C393.367 164.273 397.443 165.47 400.807 167.864C404.17 170.227 406.413 173.439 407.534 177.5H408.261C409.686 173.5 412.261 170.303 415.989 167.909C419.746 165.485 424.186 164.273 429.307 164.273C435.822 164.273 441.11 166.348 445.17 170.5C449.261 174.621 451.307 180.47 451.307 188.045V235H431.989V191.864C431.989 187.985 430.958 185.076 428.898 183.136C426.837 181.197 424.261 180.227 421.17 180.227C417.655 180.227 414.913 181.348 412.943 183.591C410.973 185.803 409.989 188.727 409.989 192.364V235H391.216V191.455C391.216 188.03 390.231 185.303 388.261 183.273C386.322 181.242 383.761 180.227 380.58 180.227C378.428 180.227 376.489 180.773 374.761 181.864C373.064 182.924 371.716 184.424 370.716 186.364C369.716 188.273 369.216 190.515 369.216 193.091V235H349.852ZM496.591 141.909H520.864L546.5 204.455H547.591L573.227 141.909H597.5V235H578.409V174.409H577.636L553.545 234.545H540.545L516.455 174.182H515.682V235H496.591V141.909ZM633.261 236.318C628.807 236.318 624.837 235.545 621.352 234C617.867 232.424 615.11 230.106 613.08 227.045C611.08 223.955 610.08 220.106 610.08 215.5C610.08 211.621 610.792 208.364 612.216 205.727C613.64 203.091 615.58 200.97 618.034 199.364C620.489 197.758 623.277 196.545 626.398 195.727C629.549 194.909 632.852 194.333 636.307 194C640.367 193.576 643.64 193.182 646.125 192.818C648.61 192.424 650.413 191.848 651.534 191.091C652.655 190.333 653.216 189.212 653.216 187.727V187.455C653.216 184.576 652.307 182.348 650.489 180.773C648.701 179.197 646.155 178.409 642.852 178.409C639.367 178.409 636.595 179.182 634.534 180.727C632.473 182.242 631.11 184.152 630.443 186.455L612.534 185C613.443 180.758 615.231 177.091 617.898 174C620.564 170.879 624.004 168.485 628.216 166.818C632.458 165.121 637.367 164.273 642.943 164.273C646.822 164.273 650.534 164.727 654.08 165.636C657.655 166.545 660.822 167.955 663.58 169.864C666.367 171.773 668.564 174.227 670.17 177.227C671.777 180.197 672.58 183.758 672.58 187.909V235H654.216V225.318H653.67C652.549 227.5 651.049 229.424 649.17 231.091C647.292 232.727 645.034 234.015 642.398 234.955C639.761 235.864 636.716 236.318 633.261 236.318ZM638.807 222.955C641.655 222.955 644.17 222.394 646.352 221.273C648.534 220.121 650.246 218.576 651.489 216.636C652.731 214.697 653.352 212.5 653.352 210.045V202.636C652.746 203.03 651.913 203.394 650.852 203.727C649.822 204.03 648.655 204.318 647.352 204.591C646.049 204.833 644.746 205.061 643.443 205.273C642.14 205.455 640.958 205.621 639.898 205.773C637.625 206.106 635.64 206.636 633.943 207.364C632.246 208.091 630.928 209.076 629.989 210.318C629.049 211.53 628.58 213.045 628.58 214.864C628.58 217.5 629.534 219.515 631.443 220.909C633.383 222.273 635.837 222.955 638.807 222.955ZM724.739 165.182V179.727H682.693V165.182H724.739ZM692.239 148.455H711.602V213.545C711.602 215.333 711.875 216.727 712.42 217.727C712.966 218.697 713.723 219.379 714.693 219.773C715.693 220.167 716.845 220.364 718.148 220.364C719.057 220.364 719.966 220.288 720.875 220.136C721.784 219.955 722.481 219.818 722.966 219.727L726.011 234.136C725.042 234.439 723.678 234.788 721.92 235.182C720.163 235.606 718.027 235.864 715.511 235.955C710.845 236.136 706.754 235.515 703.239 234.091C699.754 232.667 697.042 230.455 695.102 227.455C693.163 224.455 692.208 220.667 692.239 216.091V148.455ZM768.42 236.364C761.239 236.364 755.057 234.909 749.875 232C744.723 229.061 740.754 224.909 737.966 219.545C735.178 214.152 733.784 207.773 733.784 200.409C733.784 193.227 735.178 186.924 737.966 181.5C740.754 176.076 744.678 171.848 749.739 168.818C754.83 165.788 760.799 164.273 767.648 164.273C772.254 164.273 776.542 165.015 780.511 166.5C784.511 167.955 787.996 170.152 790.966 173.091C793.966 176.03 796.299 179.727 797.966 184.182C799.633 188.606 800.466 193.788 800.466 199.727V205.045H741.511V193.045H782.239C782.239 190.258 781.633 187.788 780.42 185.636C779.208 183.485 777.527 181.803 775.375 180.591C773.254 179.348 770.784 178.727 767.966 178.727C765.027 178.727 762.42 179.409 760.148 180.773C757.905 182.106 756.148 183.909 754.875 186.182C753.602 188.424 752.951 190.924 752.92 193.682V205.091C752.92 208.545 753.557 211.53 754.83 214.045C756.133 216.561 757.966 218.5 760.33 219.864C762.693 221.227 765.496 221.909 768.739 221.909C770.89 221.909 772.86 221.606 774.648 221C776.436 220.394 777.966 219.485 779.239 218.273C780.511 217.061 781.481 215.576 782.148 213.818L800.057 215C799.148 219.303 797.284 223.061 794.466 226.273C791.678 229.455 788.072 231.939 783.648 233.727C779.254 235.485 774.178 236.364 768.42 236.364ZM857.875 205.273V165.182H877.239V235H858.648V222.318H857.92C856.345 226.409 853.723 229.697 850.057 232.182C846.42 234.667 841.981 235.909 836.739 235.909C832.072 235.909 827.966 234.848 824.42 232.727C820.875 230.606 818.102 227.591 816.102 223.682C814.133 219.773 813.133 215.091 813.102 209.636V165.182H832.466V206.182C832.496 210.303 833.602 213.561 835.784 215.955C837.966 218.348 840.89 219.545 844.557 219.545C846.89 219.545 849.072 219.015 851.102 217.955C853.133 216.864 854.769 215.258 856.011 213.136C857.284 211.015 857.905 208.394 857.875 205.273ZM950.818 185.091L933.091 186.182C932.788 184.667 932.136 183.303 931.136 182.091C930.136 180.848 928.818 179.864 927.182 179.136C925.576 178.379 923.652 178 921.409 178C918.409 178 915.879 178.636 913.818 179.909C911.758 181.152 910.727 182.818 910.727 184.909C910.727 186.576 911.394 187.985 912.727 189.136C914.061 190.288 916.348 191.212 919.591 191.909L932.227 194.455C939.015 195.848 944.076 198.091 947.409 201.182C950.742 204.273 952.409 208.333 952.409 213.364C952.409 217.939 951.061 221.955 948.364 225.409C945.697 228.864 942.03 231.561 937.364 233.5C932.727 235.409 927.379 236.364 921.318 236.364C912.076 236.364 904.712 234.439 899.227 230.591C893.773 226.712 890.576 221.439 889.636 214.773L908.682 213.773C909.258 216.591 910.652 218.742 912.864 220.227C915.076 221.682 917.909 222.409 921.364 222.409C924.758 222.409 927.485 221.758 929.545 220.455C931.636 219.121 932.697 217.409 932.727 215.318C932.697 213.561 931.955 212.121 930.5 211C929.045 209.848 926.803 208.97 923.773 208.364L911.682 205.955C904.864 204.591 899.788 202.227 896.455 198.864C893.152 195.5 891.5 191.212 891.5 186C891.5 181.515 892.712 177.652 895.136 174.409C897.591 171.167 901.03 168.667 905.455 166.909C909.909 165.152 915.121 164.273 921.091 164.273C929.909 164.273 936.848 166.136 941.909 169.864C947 173.591 949.97 178.667 950.818 185.091ZM964.239 235V223.455L998.42 181.136V180.636H965.42V165.182H1021.74V177.773L989.648 219.045V219.545H1022.92V235H964.239ZM1066 243.96H1194V115.96H1066V243.96Z" fill="white"/>
<path d="M99.2273 354V319.091H111.023C113.75 319.091 115.989 319.557 117.739 320.489C119.489 321.409 120.784 322.676 121.625 324.29C122.466 325.903 122.886 327.739 122.886 329.795C122.886 331.852 122.466 333.676 121.625 335.267C120.784 336.858 119.494 338.108 117.756 339.017C116.017 339.915 113.795 340.364 111.091 340.364H101.545V336.545H110.955C112.818 336.545 114.318 336.273 115.455 335.727C116.602 335.182 117.432 334.409 117.943 333.409C118.466 332.398 118.727 331.193 118.727 329.795C118.727 328.398 118.466 327.176 117.943 326.131C117.42 325.085 116.585 324.278 115.438 323.71C114.29 323.131 112.773 322.841 110.886 322.841H103.455V354H99.2273ZM115.659 338.318L124.25 354H119.341L110.886 338.318H115.659ZM140.081 354.545C137.558 354.545 135.382 353.989 133.553 352.875C131.734 351.75 130.331 350.182 129.342 348.17C128.365 346.148 127.876 343.795 127.876 341.114C127.876 338.432 128.365 336.068 129.342 334.023C130.331 331.966 131.706 330.364 133.467 329.216C135.24 328.057 137.308 327.477 139.672 327.477C141.036 327.477 142.382 327.705 143.712 328.159C145.041 328.614 146.251 329.352 147.342 330.375C148.433 331.386 149.303 332.727 149.95 334.398C150.598 336.068 150.922 338.125 150.922 340.568V342.273H130.74V338.795H146.831C146.831 337.318 146.536 336 145.945 334.841C145.365 333.682 144.536 332.767 143.456 332.097C142.388 331.426 141.126 331.091 139.672 331.091C138.07 331.091 136.683 331.489 135.513 332.284C134.354 333.068 133.462 334.091 132.837 335.352C132.212 336.614 131.899 337.966 131.899 339.409V341.727C131.899 343.705 132.24 345.381 132.922 346.756C133.615 348.119 134.575 349.159 135.803 349.875C137.03 350.58 138.456 350.932 140.081 350.932C141.138 350.932 142.092 350.784 142.945 350.489C143.808 350.182 144.553 349.727 145.178 349.125C145.803 348.511 146.286 347.75 146.626 346.841L150.513 347.932C150.104 349.25 149.416 350.409 148.45 351.409C147.484 352.398 146.291 353.17 144.871 353.727C143.45 354.273 141.854 354.545 140.081 354.545ZM164.746 354.614C163.087 354.614 161.581 354.301 160.229 353.676C158.876 353.04 157.803 352.125 157.007 350.932C156.212 349.727 155.814 348.273 155.814 346.568C155.814 345.068 156.109 343.852 156.7 342.92C157.291 341.977 158.081 341.239 159.07 340.705C160.058 340.17 161.149 339.773 162.342 339.511C163.547 339.239 164.757 339.023 165.973 338.864C167.564 338.659 168.854 338.506 169.842 338.403C170.842 338.29 171.57 338.102 172.024 337.841C172.49 337.58 172.723 337.125 172.723 336.477V336.341C172.723 334.659 172.263 333.352 171.342 332.42C170.433 331.489 169.053 331.023 167.2 331.023C165.28 331.023 163.774 331.443 162.683 332.284C161.592 333.125 160.825 334.023 160.382 334.977L156.564 333.614C157.246 332.023 158.155 330.784 159.291 329.898C160.439 329 161.689 328.375 163.041 328.023C164.405 327.659 165.746 327.477 167.064 327.477C167.905 327.477 168.871 327.58 169.962 327.784C171.064 327.977 172.126 328.381 173.149 328.994C174.183 329.608 175.041 330.534 175.723 331.773C176.405 333.011 176.746 334.67 176.746 336.75V354H172.723V350.455H172.518C172.246 351.023 171.791 351.631 171.155 352.278C170.518 352.926 169.672 353.477 168.615 353.932C167.558 354.386 166.268 354.614 164.746 354.614ZM165.359 351C166.95 351 168.291 350.688 169.382 350.062C170.484 349.438 171.314 348.631 171.871 347.642C172.439 346.653 172.723 345.614 172.723 344.523V340.841C172.553 341.045 172.178 341.233 171.598 341.403C171.03 341.562 170.371 341.705 169.621 341.83C168.882 341.943 168.161 342.045 167.456 342.136C166.763 342.216 166.2 342.284 165.768 342.341C164.723 342.477 163.746 342.699 162.837 343.006C161.939 343.301 161.212 343.75 160.655 344.352C160.109 344.943 159.837 345.75 159.837 346.773C159.837 348.17 160.354 349.227 161.388 349.943C162.433 350.648 163.757 351 165.359 351ZM193.974 354.545C191.793 354.545 189.866 353.994 188.196 352.892C186.526 351.778 185.219 350.21 184.276 348.188C183.332 346.153 182.861 343.75 182.861 340.977C182.861 338.227 183.332 335.841 184.276 333.818C185.219 331.795 186.531 330.233 188.213 329.131C189.895 328.028 191.838 327.477 194.043 327.477C195.747 327.477 197.094 327.761 198.082 328.33C199.082 328.886 199.844 329.523 200.366 330.239C200.901 330.943 201.315 331.523 201.611 331.977H201.952V319.091H205.974V354H202.088V349.977H201.611C201.315 350.455 200.895 351.057 200.349 351.784C199.804 352.5 199.026 353.142 198.014 353.71C197.003 354.267 195.656 354.545 193.974 354.545ZM194.52 350.932C196.134 350.932 197.497 350.511 198.611 349.67C199.724 348.818 200.571 347.642 201.151 346.142C201.73 344.631 202.02 342.886 202.02 340.909C202.02 338.955 201.736 337.244 201.168 335.778C200.599 334.301 199.759 333.153 198.645 332.335C197.531 331.506 196.156 331.091 194.52 331.091C192.815 331.091 191.395 331.528 190.259 332.403C189.134 333.267 188.287 334.443 187.719 335.932C187.162 337.409 186.884 339.068 186.884 340.909C186.884 342.773 187.168 344.466 187.736 345.989C188.315 347.5 189.168 348.705 190.293 349.602C191.429 350.489 192.838 350.932 194.52 350.932ZM216.491 363.818C215.81 363.818 215.202 363.761 214.668 363.648C214.134 363.545 213.764 363.443 213.56 363.341L214.582 359.795C215.56 360.045 216.423 360.136 217.173 360.068C217.923 360 218.588 359.665 219.168 359.062C219.759 358.472 220.298 357.511 220.787 356.182L221.537 354.136L211.855 327.818H216.219L223.446 348.682H223.719L230.946 327.818H235.31L224.196 357.818C223.696 359.17 223.077 360.29 222.338 361.176C221.599 362.074 220.741 362.739 219.764 363.17C218.798 363.602 217.707 363.818 216.491 363.818ZM265.778 327.818V331.227H251.665V327.818H265.778ZM255.892 354V324.205C255.892 322.705 256.244 321.455 256.949 320.455C257.653 319.455 258.568 318.705 259.693 318.205C260.818 317.705 262.006 317.455 263.256 317.455C264.244 317.455 265.051 317.534 265.676 317.693C266.301 317.852 266.767 318 267.074 318.136L265.915 321.614C265.71 321.545 265.426 321.46 265.062 321.358C264.71 321.256 264.244 321.205 263.665 321.205C262.335 321.205 261.375 321.54 260.784 322.21C260.205 322.881 259.915 323.864 259.915 325.159V354H255.892ZM280.974 354.545C278.611 354.545 276.537 353.983 274.753 352.858C272.98 351.733 271.594 350.159 270.594 348.136C269.605 346.114 269.111 343.75 269.111 341.045C269.111 338.318 269.605 335.937 270.594 333.903C271.594 331.869 272.98 330.29 274.753 329.165C276.537 328.04 278.611 327.477 280.974 327.477C283.338 327.477 285.406 328.04 287.179 329.165C288.963 330.29 290.349 331.869 291.338 333.903C292.338 335.937 292.838 338.318 292.838 341.045C292.838 343.75 292.338 346.114 291.338 348.136C290.349 350.159 288.963 351.733 287.179 352.858C285.406 353.983 283.338 354.545 280.974 354.545ZM280.974 350.932C282.77 350.932 284.247 350.472 285.406 349.551C286.565 348.631 287.423 347.42 287.98 345.92C288.537 344.42 288.815 342.795 288.815 341.045C288.815 339.295 288.537 337.665 287.98 336.153C287.423 334.642 286.565 333.42 285.406 332.489C284.247 331.557 282.77 331.091 280.974 331.091C279.179 331.091 277.702 331.557 276.543 332.489C275.384 333.42 274.526 334.642 273.969 336.153C273.412 337.665 273.134 339.295 273.134 341.045C273.134 342.795 273.412 344.42 273.969 345.92C274.526 347.42 275.384 348.631 276.543 349.551C277.702 350.472 279.179 350.932 280.974 350.932ZM298.979 354V327.818H302.865V331.773H303.138C303.615 330.477 304.479 329.426 305.729 328.619C306.979 327.812 308.388 327.409 309.956 327.409C310.251 327.409 310.621 327.415 311.064 327.426C311.507 327.437 311.842 327.455 312.07 327.477V331.568C311.933 331.534 311.621 331.483 311.132 331.415C310.655 331.335 310.149 331.295 309.615 331.295C308.342 331.295 307.206 331.562 306.206 332.097C305.217 332.619 304.433 333.347 303.854 334.278C303.286 335.199 303.001 336.25 303.001 337.432V354H298.979ZM334.361 338.25V354H330.338V327.818H334.224V331.909H334.565C335.179 330.58 336.111 329.511 337.361 328.705C338.611 327.886 340.224 327.477 342.202 327.477C343.974 327.477 345.526 327.841 346.855 328.568C348.185 329.284 349.219 330.375 349.957 331.841C350.696 333.295 351.065 335.136 351.065 337.364V354H347.043V337.636C347.043 335.58 346.509 333.977 345.44 332.83C344.372 331.67 342.906 331.091 341.043 331.091C339.759 331.091 338.611 331.369 337.599 331.926C336.599 332.483 335.81 333.295 335.23 334.364C334.651 335.432 334.361 336.727 334.361 338.25ZM369.393 354.545C366.871 354.545 364.695 353.989 362.865 352.875C361.047 351.75 359.643 350.182 358.655 348.17C357.678 346.148 357.189 343.795 357.189 341.114C357.189 338.432 357.678 336.068 358.655 334.023C359.643 331.966 361.018 330.364 362.78 329.216C364.553 328.057 366.621 327.477 368.984 327.477C370.348 327.477 371.695 327.705 373.024 328.159C374.354 328.614 375.564 329.352 376.655 330.375C377.746 331.386 378.615 332.727 379.263 334.398C379.911 336.068 380.234 338.125 380.234 340.568V342.273H360.053V338.795H376.143C376.143 337.318 375.848 336 375.257 334.841C374.678 333.682 373.848 332.767 372.768 332.097C371.7 331.426 370.439 331.091 368.984 331.091C367.382 331.091 365.996 331.489 364.825 332.284C363.666 333.068 362.774 334.091 362.149 335.352C361.524 336.614 361.212 337.966 361.212 339.409V341.727C361.212 343.705 361.553 345.381 362.234 346.756C362.928 348.119 363.888 349.159 365.115 349.875C366.342 350.58 367.768 350.932 369.393 350.932C370.45 350.932 371.405 350.784 372.257 350.489C373.121 350.182 373.865 349.727 374.49 349.125C375.115 348.511 375.598 347.75 375.939 346.841L379.825 347.932C379.416 349.25 378.729 350.409 377.763 351.409C376.797 352.398 375.604 353.17 374.183 353.727C372.763 354.273 371.166 354.545 369.393 354.545ZM392.286 354L384.308 327.818H388.536L394.195 347.864H394.467L400.058 327.818H404.354L409.876 347.795H410.149L415.808 327.818H420.036L412.058 354H408.104L402.376 333.886H401.967L396.24 354H392.286ZM449.49 354.545C447.036 354.545 444.922 353.966 443.149 352.807C441.376 351.648 440.013 350.051 439.058 348.017C438.104 345.983 437.626 343.659 437.626 341.045C437.626 338.386 438.115 336.04 439.092 334.006C440.081 331.96 441.456 330.364 443.217 329.216C444.99 328.057 447.058 327.477 449.422 327.477C451.263 327.477 452.922 327.818 454.399 328.5C455.876 329.182 457.087 330.136 458.03 331.364C458.973 332.591 459.558 334.023 459.786 335.659H455.763C455.456 334.466 454.774 333.409 453.717 332.489C452.672 331.557 451.263 331.091 449.49 331.091C447.922 331.091 446.547 331.5 445.365 332.318C444.195 333.125 443.28 334.267 442.621 335.744C441.973 337.21 441.649 338.932 441.649 340.909C441.649 342.932 441.967 344.693 442.604 346.193C443.251 347.693 444.161 348.858 445.331 349.688C446.513 350.517 447.899 350.932 449.49 350.932C450.536 350.932 451.484 350.75 452.337 350.386C453.189 350.023 453.911 349.5 454.501 348.818C455.092 348.136 455.513 347.318 455.763 346.364H459.786C459.558 347.909 458.996 349.301 458.098 350.54C457.212 351.767 456.036 352.744 454.57 353.472C453.115 354.188 451.422 354.545 449.49 354.545ZM469.689 338.25V354H465.666V319.091H469.689V331.909H470.03C470.643 330.557 471.564 329.483 472.791 328.688C474.03 327.881 475.678 327.477 477.734 327.477C479.518 327.477 481.081 327.835 482.422 328.551C483.763 329.256 484.803 330.341 485.541 331.807C486.291 333.261 486.666 335.114 486.666 337.364V354H482.643V337.636C482.643 335.557 482.104 333.949 481.024 332.812C479.956 331.665 478.473 331.091 476.575 331.091C475.257 331.091 474.075 331.369 473.03 331.926C471.996 332.483 471.178 333.295 470.575 334.364C469.984 335.432 469.689 336.727 469.689 338.25ZM501.73 354.614C500.071 354.614 498.565 354.301 497.213 353.676C495.861 353.04 494.787 352.125 493.991 350.932C493.196 349.727 492.798 348.273 492.798 346.568C492.798 345.068 493.094 343.852 493.685 342.92C494.276 341.977 495.065 341.239 496.054 340.705C497.043 340.17 498.134 339.773 499.327 339.511C500.531 339.239 501.741 339.023 502.957 338.864C504.548 338.659 505.838 338.506 506.827 338.403C507.827 338.29 508.554 338.102 509.009 337.841C509.474 337.58 509.707 337.125 509.707 336.477V336.341C509.707 334.659 509.247 333.352 508.327 332.42C507.418 331.489 506.037 331.023 504.185 331.023C502.264 331.023 500.759 331.443 499.668 332.284C498.577 333.125 497.81 334.023 497.366 334.977L493.548 333.614C494.23 332.023 495.139 330.784 496.276 329.898C497.423 329 498.673 328.375 500.026 328.023C501.389 327.659 502.73 327.477 504.048 327.477C504.889 327.477 505.855 327.58 506.946 327.784C508.048 327.977 509.111 328.381 510.134 328.994C511.168 329.608 512.026 330.534 512.707 331.773C513.389 333.011 513.73 334.67 513.73 336.75V354H509.707V350.455H509.503C509.23 351.023 508.776 351.631 508.139 352.278C507.503 352.926 506.656 353.477 505.599 353.932C504.543 354.386 503.253 354.614 501.73 354.614ZM502.344 351C503.935 351 505.276 350.688 506.366 350.062C507.469 349.438 508.298 348.631 508.855 347.642C509.423 346.653 509.707 345.614 509.707 344.523V340.841C509.537 341.045 509.162 341.233 508.582 341.403C508.014 341.562 507.355 341.705 506.605 341.83C505.866 341.943 505.145 342.045 504.44 342.136C503.747 342.216 503.185 342.284 502.753 342.341C501.707 342.477 500.73 342.699 499.821 343.006C498.923 343.301 498.196 343.75 497.639 344.352C497.094 344.943 496.821 345.75 496.821 346.773C496.821 348.17 497.338 349.227 498.372 349.943C499.418 350.648 500.741 351 502.344 351ZM525.095 319.091V354H521.072V319.091H525.095ZM536.486 319.091V354H532.463V319.091H536.486ZM554.831 354.545C552.308 354.545 550.132 353.989 548.303 352.875C546.484 351.75 545.081 350.182 544.092 348.17C543.115 346.148 542.626 343.795 542.626 341.114C542.626 338.432 543.115 336.068 544.092 334.023C545.081 331.966 546.456 330.364 548.217 329.216C549.99 328.057 552.058 327.477 554.422 327.477C555.786 327.477 557.132 327.705 558.462 328.159C559.791 328.614 561.001 329.352 562.092 330.375C563.183 331.386 564.053 332.727 564.7 334.398C565.348 336.068 565.672 338.125 565.672 340.568V342.273H545.49V338.795H561.581C561.581 337.318 561.286 336 560.695 334.841C560.115 333.682 559.286 332.767 558.206 332.097C557.138 331.426 555.876 331.091 554.422 331.091C552.82 331.091 551.433 331.489 550.263 332.284C549.104 333.068 548.212 334.091 547.587 335.352C546.962 336.614 546.649 337.966 546.649 339.409V341.727C546.649 343.705 546.99 345.381 547.672 346.756C548.365 348.119 549.325 349.159 550.553 349.875C551.78 350.58 553.206 350.932 554.831 350.932C555.888 350.932 556.842 350.784 557.695 350.489C558.558 350.182 559.303 349.727 559.928 349.125C560.553 348.511 561.036 347.75 561.376 346.841L565.263 347.932C564.854 349.25 564.166 350.409 563.2 351.409C562.234 352.398 561.041 353.17 559.621 353.727C558.2 354.273 556.604 354.545 554.831 354.545ZM575.814 338.25V354H571.791V327.818H575.678V331.909H576.018C576.632 330.58 577.564 329.511 578.814 328.705C580.064 327.886 581.678 327.477 583.655 327.477C585.428 327.477 586.979 327.841 588.308 328.568C589.638 329.284 590.672 330.375 591.411 331.841C592.149 333.295 592.518 335.136 592.518 337.364V354H588.496V337.636C588.496 335.58 587.962 333.977 586.893 332.83C585.825 331.67 584.359 331.091 582.496 331.091C581.212 331.091 580.064 331.369 579.053 331.926C578.053 332.483 577.263 333.295 576.683 334.364C576.104 335.432 575.814 336.727 575.814 338.25ZM610.438 364.364C608.494 364.364 606.824 364.114 605.426 363.614C604.028 363.125 602.864 362.477 601.932 361.67C601.011 360.875 600.278 360.023 599.733 359.114L602.938 356.864C603.301 357.341 603.761 357.886 604.318 358.5C604.875 359.125 605.636 359.665 606.602 360.119C607.58 360.585 608.858 360.818 610.438 360.818C612.551 360.818 614.295 360.307 615.67 359.284C617.045 358.261 617.733 356.659 617.733 354.477V349.159H617.392C617.097 349.636 616.676 350.227 616.131 350.932C615.597 351.625 614.824 352.244 613.812 352.79C612.812 353.324 611.46 353.591 609.756 353.591C607.642 353.591 605.744 353.091 604.062 352.091C602.392 351.091 601.068 349.636 600.091 347.727C599.125 345.818 598.642 343.5 598.642 340.773C598.642 338.091 599.114 335.756 600.057 333.767C601 331.767 602.313 330.222 603.994 329.131C605.676 328.028 607.619 327.477 609.824 327.477C611.528 327.477 612.881 327.761 613.881 328.33C614.892 328.886 615.665 329.523 616.199 330.239C616.744 330.943 617.165 331.523 617.46 331.977H617.869V327.818H621.756V354.75C621.756 357 621.244 358.83 620.222 360.239C619.21 361.659 617.847 362.699 616.131 363.358C614.426 364.028 612.528 364.364 610.438 364.364ZM610.301 349.977C611.915 349.977 613.278 349.608 614.392 348.869C615.506 348.131 616.352 347.068 616.932 345.682C617.511 344.295 617.801 342.636 617.801 340.705C617.801 338.818 617.517 337.153 616.949 335.71C616.381 334.267 615.54 333.136 614.426 332.318C613.313 331.5 611.938 331.091 610.301 331.091C608.597 331.091 607.176 331.523 606.04 332.386C604.915 333.25 604.068 334.409 603.5 335.864C602.943 337.318 602.665 338.932 602.665 340.705C602.665 342.523 602.949 344.131 603.517 345.528C604.097 346.915 604.949 348.006 606.074 348.801C607.21 349.585 608.619 349.977 610.301 349.977ZM640.097 354.545C637.574 354.545 635.398 353.989 633.568 352.875C631.75 351.75 630.347 350.182 629.358 348.17C628.381 346.148 627.892 343.795 627.892 341.114C627.892 338.432 628.381 336.068 629.358 334.023C630.347 331.966 631.722 330.364 633.483 329.216C635.256 328.057 637.324 327.477 639.688 327.477C641.051 327.477 642.398 327.705 643.727 328.159C645.057 328.614 646.267 329.352 647.358 330.375C648.449 331.386 649.318 332.727 649.966 334.398C650.614 336.068 650.938 338.125 650.938 340.568V342.273H630.756V338.795H646.847C646.847 337.318 646.551 336 645.96 334.841C645.381 333.682 644.551 332.767 643.472 332.097C642.403 331.426 641.142 331.091 639.688 331.091C638.085 331.091 636.699 331.489 635.528 332.284C634.369 333.068 633.477 334.091 632.852 335.352C632.227 336.614 631.915 337.966 631.915 339.409V341.727C631.915 343.705 632.256 345.381 632.938 346.756C633.631 348.119 634.591 349.159 635.818 349.875C637.045 350.58 638.472 350.932 640.097 350.932C641.153 350.932 642.108 350.784 642.96 350.489C643.824 350.182 644.568 349.727 645.193 349.125C645.818 348.511 646.301 347.75 646.642 346.841L650.528 347.932C650.119 349.25 649.432 350.409 648.466 351.409C647.5 352.398 646.307 353.17 644.886 353.727C643.466 354.273 641.869 354.545 640.097 354.545ZM675.602 333.682L671.989 334.705C671.761 334.102 671.426 333.517 670.983 332.949C670.551 332.369 669.96 331.892 669.21 331.517C668.46 331.142 667.5 330.955 666.33 330.955C664.727 330.955 663.392 331.324 662.324 332.062C661.267 332.79 660.739 333.716 660.739 334.841C660.739 335.841 661.102 336.631 661.83 337.21C662.557 337.79 663.693 338.273 665.239 338.659L669.125 339.614C671.466 340.182 673.21 341.051 674.358 342.222C675.506 343.381 676.08 344.875 676.08 346.705C676.08 348.205 675.648 349.545 674.784 350.727C673.932 351.909 672.739 352.841 671.205 353.523C669.67 354.205 667.886 354.545 665.852 354.545C663.182 354.545 660.972 353.966 659.222 352.807C657.472 351.648 656.364 349.955 655.898 347.727L659.716 346.773C660.08 348.182 660.767 349.239 661.778 349.943C662.801 350.648 664.136 351 665.784 351C667.659 351 669.148 350.602 670.25 349.807C671.364 349 671.92 348.034 671.92 346.909C671.92 346 671.602 345.239 670.966 344.625C670.33 344 669.352 343.534 668.034 343.227L663.67 342.205C661.273 341.636 659.511 340.756 658.386 339.562C657.273 338.358 656.716 336.852 656.716 335.045C656.716 333.568 657.131 332.261 657.96 331.125C658.801 329.989 659.943 329.097 661.386 328.449C662.841 327.801 664.489 327.477 666.33 327.477C668.92 327.477 670.955 328.045 672.432 329.182C673.92 330.318 674.977 331.818 675.602 333.682ZM703.339 354.614C701.68 354.614 700.175 354.301 698.822 353.676C697.47 353.04 696.396 352.125 695.601 350.932C694.805 349.727 694.408 348.273 694.408 346.568C694.408 345.068 694.703 343.852 695.294 342.92C695.885 341.977 696.675 341.239 697.663 340.705C698.652 340.17 699.743 339.773 700.936 339.511C702.141 339.239 703.351 339.023 704.567 338.864C706.158 338.659 707.447 338.506 708.436 338.403C709.436 338.29 710.163 338.102 710.618 337.841C711.084 337.58 711.317 337.125 711.317 336.477V336.341C711.317 334.659 710.857 333.352 709.936 332.42C709.027 331.489 707.646 331.023 705.794 331.023C703.874 331.023 702.368 331.443 701.277 332.284C700.186 333.125 699.419 334.023 698.976 334.977L695.158 333.614C695.839 332.023 696.749 330.784 697.885 329.898C699.033 329 700.283 328.375 701.635 328.023C702.999 327.659 704.339 327.477 705.658 327.477C706.499 327.477 707.464 327.58 708.555 327.784C709.658 327.977 710.72 328.381 711.743 328.994C712.777 329.608 713.635 330.534 714.317 331.773C714.999 333.011 715.339 334.67 715.339 336.75V354H711.317V350.455H711.112C710.839 351.023 710.385 351.631 709.749 352.278C709.112 352.926 708.266 353.477 707.209 353.932C706.152 354.386 704.862 354.614 703.339 354.614ZM703.953 351C705.544 351 706.885 350.688 707.976 350.062C709.078 349.438 709.908 348.631 710.464 347.642C711.033 346.653 711.317 345.614 711.317 344.523V340.841C711.146 341.045 710.771 341.233 710.192 341.403C709.624 341.562 708.964 341.705 708.214 341.83C707.476 341.943 706.754 342.045 706.05 342.136C705.357 342.216 704.794 342.284 704.362 342.341C703.317 342.477 702.339 342.699 701.43 343.006C700.533 343.301 699.805 343.75 699.249 344.352C698.703 344.943 698.43 345.75 698.43 346.773C698.43 348.17 698.947 349.227 699.982 349.943C701.027 350.648 702.351 351 703.953 351ZM726.705 338.25V354H722.682V327.818H726.568V331.909H726.909C727.523 330.58 728.455 329.511 729.705 328.705C730.955 327.886 732.568 327.477 734.545 327.477C736.318 327.477 737.869 327.841 739.199 328.568C740.528 329.284 741.563 330.375 742.301 331.841C743.04 333.295 743.409 335.136 743.409 337.364V354H739.386V337.636C739.386 335.58 738.852 333.977 737.784 332.83C736.716 331.67 735.25 331.091 733.386 331.091C732.102 331.091 730.955 331.369 729.943 331.926C728.943 332.483 728.153 333.295 727.574 334.364C726.994 335.432 726.705 336.727 726.705 338.25ZM760.646 354.545C758.464 354.545 756.538 353.994 754.868 352.892C753.197 351.778 751.891 350.21 750.947 348.188C750.004 346.153 749.533 343.75 749.533 340.977C749.533 338.227 750.004 335.841 750.947 333.818C751.891 331.795 753.203 330.233 754.885 329.131C756.567 328.028 758.51 327.477 760.714 327.477C762.419 327.477 763.766 327.761 764.754 328.33C765.754 328.886 766.516 329.523 767.038 330.239C767.572 330.943 767.987 331.523 768.283 331.977H768.624V319.091H772.646V354H768.76V349.977H768.283C767.987 350.455 767.567 351.057 767.021 351.784C766.476 352.5 765.697 353.142 764.686 353.71C763.675 354.267 762.328 354.545 760.646 354.545ZM761.192 350.932C762.805 350.932 764.169 350.511 765.283 349.67C766.396 348.818 767.243 347.642 767.822 346.142C768.402 344.631 768.692 342.886 768.692 340.909C768.692 338.955 768.408 337.244 767.839 335.778C767.271 334.301 766.43 333.153 765.317 332.335C764.203 331.506 762.828 331.091 761.192 331.091C759.487 331.091 758.067 331.528 756.93 332.403C755.805 333.267 754.959 334.443 754.391 335.932C753.834 337.409 753.555 339.068 753.555 340.909C753.555 342.773 753.839 344.466 754.408 345.989C754.987 347.5 755.839 348.705 756.964 349.602C758.101 350.489 759.51 350.932 761.192 350.932ZM800.004 354L792.027 327.818H796.254L801.913 347.864H802.186L807.777 327.818H812.072L817.595 347.795H817.868L823.527 327.818H827.754L819.777 354H815.822L810.095 333.886H809.686L803.959 354H800.004ZM842.818 354.545C840.455 354.545 838.381 353.983 836.597 352.858C834.824 351.733 833.438 350.159 832.438 348.136C831.449 346.114 830.955 343.75 830.955 341.045C830.955 338.318 831.449 335.937 832.438 333.903C833.438 331.869 834.824 330.29 836.597 329.165C838.381 328.04 840.455 327.477 842.818 327.477C845.182 327.477 847.25 328.04 849.023 329.165C850.807 330.29 852.193 331.869 853.182 333.903C854.182 335.937 854.682 338.318 854.682 341.045C854.682 343.75 854.182 346.114 853.182 348.136C852.193 350.159 850.807 351.733 849.023 352.858C847.25 353.983 845.182 354.545 842.818 354.545ZM842.818 350.932C844.614 350.932 846.091 350.472 847.25 349.551C848.409 348.631 849.267 347.42 849.824 345.92C850.381 344.42 850.659 342.795 850.659 341.045C850.659 339.295 850.381 337.665 849.824 336.153C849.267 334.642 848.409 333.42 847.25 332.489C846.091 331.557 844.614 331.091 842.818 331.091C841.023 331.091 839.545 331.557 838.386 332.489C837.227 333.42 836.369 334.642 835.812 336.153C835.256 337.665 834.977 339.295 834.977 341.045C834.977 342.795 835.256 344.42 835.812 345.92C836.369 347.42 837.227 348.631 838.386 349.551C839.545 350.472 841.023 350.932 842.818 350.932ZM860.822 354V327.818H864.709V331.773H864.982C865.459 330.477 866.322 329.426 867.572 328.619C868.822 327.812 870.232 327.409 871.8 327.409C872.095 327.409 872.464 327.415 872.908 327.426C873.351 327.437 873.686 327.455 873.913 327.477V331.568C873.777 331.534 873.464 331.483 872.976 331.415C872.499 331.335 871.993 331.295 871.459 331.295C870.186 331.295 869.05 331.562 868.05 332.097C867.061 332.619 866.277 333.347 865.697 334.278C865.129 335.199 864.845 336.25 864.845 337.432V354H860.822ZM882.432 344.455L882.364 339.477H883.182L894.636 327.818H899.614L887.409 340.159H887.068L882.432 344.455ZM878.682 354V319.091H882.705V354H878.682ZM895.318 354L885.091 341.045L887.955 338.25L900.432 354H895.318ZM925.996 354.614C924.337 354.614 922.831 354.301 921.479 353.676C920.126 353.04 919.053 352.125 918.257 350.932C917.462 349.727 917.064 348.273 917.064 346.568C917.064 345.068 917.359 343.852 917.95 342.92C918.541 341.977 919.331 341.239 920.32 340.705C921.308 340.17 922.399 339.773 923.592 339.511C924.797 339.239 926.007 339.023 927.223 338.864C928.814 338.659 930.104 338.506 931.092 338.403C932.092 338.29 932.82 338.102 933.274 337.841C933.74 337.58 933.973 337.125 933.973 336.477V336.341C933.973 334.659 933.513 333.352 932.592 332.42C931.683 331.489 930.303 331.023 928.45 331.023C926.53 331.023 925.024 331.443 923.933 332.284C922.842 333.125 922.075 334.023 921.632 334.977L917.814 333.614C918.496 332.023 919.405 330.784 920.541 329.898C921.689 329 922.939 328.375 924.291 328.023C925.655 327.659 926.996 327.477 928.314 327.477C929.155 327.477 930.121 327.58 931.212 327.784C932.314 327.977 933.376 328.381 934.399 328.994C935.433 329.608 936.291 330.534 936.973 331.773C937.655 333.011 937.996 334.67 937.996 336.75V354H933.973V350.455H933.768C933.496 351.023 933.041 351.631 932.405 352.278C931.768 352.926 930.922 353.477 929.865 353.932C928.808 354.386 927.518 354.614 925.996 354.614ZM926.609 351C928.2 351 929.541 350.688 930.632 350.062C931.734 349.438 932.564 348.631 933.121 347.642C933.689 346.653 933.973 345.614 933.973 344.523V340.841C933.803 341.045 933.428 341.233 932.848 341.403C932.28 341.562 931.621 341.705 930.871 341.83C930.132 341.943 929.411 342.045 928.706 342.136C928.013 342.216 927.45 342.284 927.018 342.341C925.973 342.477 924.996 342.699 924.087 343.006C923.189 343.301 922.462 343.75 921.905 344.352C921.359 344.943 921.087 345.75 921.087 346.773C921.087 348.17 921.604 349.227 922.638 349.943C923.683 350.648 925.007 351 926.609 351ZM963.884 333.682L960.27 334.705C960.043 334.102 959.707 333.517 959.264 332.949C958.832 332.369 958.241 331.892 957.491 331.517C956.741 331.142 955.781 330.955 954.611 330.955C953.009 330.955 951.673 331.324 950.605 332.062C949.548 332.79 949.02 333.716 949.02 334.841C949.02 335.841 949.384 336.631 950.111 337.21C950.838 337.79 951.974 338.273 953.52 338.659L957.406 339.614C959.747 340.182 961.491 341.051 962.639 342.222C963.787 343.381 964.361 344.875 964.361 346.705C964.361 348.205 963.929 349.545 963.065 350.727C962.213 351.909 961.02 352.841 959.486 353.523C957.952 354.205 956.168 354.545 954.134 354.545C951.463 354.545 949.253 353.966 947.503 352.807C945.753 351.648 944.645 349.955 944.179 347.727L947.997 346.773C948.361 348.182 949.048 349.239 950.06 349.943C951.082 350.648 952.418 351 954.065 351C955.94 351 957.429 350.602 958.531 349.807C959.645 349 960.202 348.034 960.202 346.909C960.202 346 959.884 345.239 959.247 344.625C958.611 344 957.634 343.534 956.315 343.227L951.952 342.205C949.554 341.636 947.793 340.756 946.668 339.562C945.554 338.358 944.997 336.852 944.997 335.045C944.997 333.568 945.412 332.261 946.241 331.125C947.082 329.989 948.224 329.097 949.668 328.449C951.122 327.801 952.77 327.477 954.611 327.477C957.202 327.477 959.236 328.045 960.713 329.182C962.202 330.318 963.259 331.818 963.884 333.682ZM991.621 354.614C989.962 354.614 988.456 354.301 987.104 353.676C985.751 353.04 984.678 352.125 983.882 350.932C983.087 349.727 982.689 348.273 982.689 346.568C982.689 345.068 982.984 343.852 983.575 342.92C984.166 341.977 984.956 341.239 985.945 340.705C986.933 340.17 988.024 339.773 989.217 339.511C990.422 339.239 991.632 339.023 992.848 338.864C994.439 338.659 995.729 338.506 996.717 338.403C997.717 338.29 998.445 338.102 998.899 337.841C999.365 337.58 999.598 337.125 999.598 336.477V336.341C999.598 334.659 999.138 333.352 998.217 332.42C997.308 331.489 995.928 331.023 994.075 331.023C992.155 331.023 990.649 331.443 989.558 332.284C988.467 333.125 987.7 334.023 987.257 334.977L983.439 333.614C984.121 332.023 985.03 330.784 986.166 329.898C987.314 329 988.564 328.375 989.916 328.023C991.28 327.659 992.621 327.477 993.939 327.477C994.78 327.477 995.746 327.58 996.837 327.784C997.939 327.977 999.001 328.381 1000.02 328.994C1001.06 329.608 1001.92 330.534 1002.6 331.773C1003.28 333.011 1003.62 334.67 1003.62 336.75V354H999.598V350.455H999.393C999.121 351.023 998.666 351.631 998.03 352.278C997.393 352.926 996.547 353.477 995.49 353.932C994.433 354.386 993.143 354.614 991.621 354.614ZM992.234 351C993.825 351 995.166 350.688 996.257 350.062C997.359 349.438 998.189 348.631 998.746 347.642C999.314 346.653 999.598 345.614 999.598 344.523V340.841C999.428 341.045 999.053 341.233 998.473 341.403C997.905 341.562 997.246 341.705 996.496 341.83C995.757 341.943 995.036 342.045 994.331 342.136C993.638 342.216 993.075 342.284 992.643 342.341C991.598 342.477 990.621 342.699 989.712 343.006C988.814 343.301 988.087 343.75 987.53 344.352C986.984 344.943 986.712 345.75 986.712 346.773C986.712 348.17 987.229 349.227 988.263 349.943C989.308 350.648 990.632 351 992.234 351ZM99.2273 431V396.091H120.159V399.841H103.455V411.636H118.591V415.386H103.455V431H99.2273ZM126.572 431V404.818H130.459V408.773H130.732C131.209 407.477 132.072 406.426 133.322 405.619C134.572 404.812 135.982 404.409 137.55 404.409C137.845 404.409 138.214 404.415 138.658 404.426C139.101 404.437 139.436 404.455 139.663 404.477V408.568C139.527 408.534 139.214 408.483 138.726 408.415C138.249 408.335 137.743 408.295 137.209 408.295C135.936 408.295 134.8 408.562 133.8 409.097C132.811 409.619 132.027 410.347 131.447 411.278C130.879 412.199 130.595 413.25 130.595 414.432V431H126.572ZM154.271 431.545C151.908 431.545 149.834 430.983 148.05 429.858C146.277 428.733 144.891 427.159 143.891 425.136C142.902 423.114 142.408 420.75 142.408 418.045C142.408 415.318 142.902 412.937 143.891 410.903C144.891 408.869 146.277 407.29 148.05 406.165C149.834 405.04 151.908 404.477 154.271 404.477C156.635 404.477 158.703 405.04 160.476 406.165C162.26 407.29 163.646 408.869 164.635 410.903C165.635 412.937 166.135 415.318 166.135 418.045C166.135 420.75 165.635 423.114 164.635 425.136C163.646 427.159 162.26 428.733 160.476 429.858C158.703 430.983 156.635 431.545 154.271 431.545ZM154.271 427.932C156.067 427.932 157.544 427.472 158.703 426.551C159.862 425.631 160.72 424.42 161.277 422.92C161.834 421.42 162.112 419.795 162.112 418.045C162.112 416.295 161.834 414.665 161.277 413.153C160.72 411.642 159.862 410.42 158.703 409.489C157.544 408.557 156.067 408.091 154.271 408.091C152.476 408.091 150.999 408.557 149.839 409.489C148.68 410.42 147.822 411.642 147.266 413.153C146.709 414.665 146.43 416.295 146.43 418.045C146.43 419.795 146.709 421.42 147.266 422.92C147.822 424.42 148.68 425.631 149.839 426.551C150.999 427.472 152.476 427.932 154.271 427.932ZM176.298 415.25V431H172.276V404.818H176.162V408.909H176.503C177.116 407.58 178.048 406.511 179.298 405.705C180.548 404.886 182.162 404.477 184.139 404.477C185.912 404.477 187.463 404.841 188.793 405.568C190.122 406.284 191.156 407.375 191.895 408.841C192.634 410.295 193.003 412.136 193.003 414.364V431H188.98V414.636C188.98 412.58 188.446 410.977 187.378 409.83C186.31 408.67 184.844 408.091 182.98 408.091C181.696 408.091 180.548 408.369 179.537 408.926C178.537 409.483 177.747 410.295 177.168 411.364C176.588 412.432 176.298 413.727 176.298 415.25ZM211.74 404.818V408.227H198.172V404.818H211.74ZM202.126 398.545H206.149V423.5C206.149 424.636 206.314 425.489 206.643 426.057C206.984 426.614 207.416 426.989 207.939 427.182C208.473 427.364 209.036 427.455 209.626 427.455C210.07 427.455 210.433 427.432 210.717 427.386C211.001 427.33 211.229 427.284 211.399 427.25L212.217 430.864C211.945 430.966 211.564 431.068 211.075 431.17C210.587 431.284 209.967 431.341 209.217 431.341C208.081 431.341 206.967 431.097 205.876 430.608C204.797 430.119 203.899 429.375 203.183 428.375C202.479 427.375 202.126 426.114 202.126 424.591V398.545ZM228.487 431.545C225.964 431.545 223.788 430.989 221.959 429.875C220.141 428.75 218.737 427.182 217.749 425.17C216.771 423.148 216.283 420.795 216.283 418.114C216.283 415.432 216.771 413.068 217.749 411.023C218.737 408.966 220.112 407.364 221.874 406.216C223.646 405.057 225.714 404.477 228.078 404.477C229.442 404.477 230.788 404.705 232.118 405.159C233.447 405.614 234.658 406.352 235.749 407.375C236.839 408.386 237.709 409.727 238.357 411.398C239.004 413.068 239.328 415.125 239.328 417.568V419.273H219.146V415.795H235.237C235.237 414.318 234.942 413 234.351 411.841C233.771 410.682 232.942 409.767 231.862 409.097C230.794 408.426 229.533 408.091 228.078 408.091C226.476 408.091 225.089 408.489 223.919 409.284C222.76 410.068 221.868 411.091 221.243 412.352C220.618 413.614 220.305 414.966 220.305 416.409V418.727C220.305 420.705 220.646 422.381 221.328 423.756C222.021 425.119 222.982 426.159 224.209 426.875C225.436 427.58 226.862 427.932 228.487 427.932C229.544 427.932 230.499 427.784 231.351 427.489C232.214 427.182 232.959 426.727 233.584 426.125C234.209 425.511 234.692 424.75 235.033 423.841L238.919 424.932C238.51 426.25 237.822 427.409 236.857 428.409C235.891 429.398 234.697 430.17 233.277 430.727C231.857 431.273 230.26 431.545 228.487 431.545ZM249.47 415.25V431H245.447V404.818H249.334V408.909H249.675C250.288 407.58 251.22 406.511 252.47 405.705C253.72 404.886 255.334 404.477 257.311 404.477C259.084 404.477 260.635 404.841 261.964 405.568C263.294 406.284 264.328 407.375 265.067 408.841C265.805 410.295 266.175 412.136 266.175 414.364V431H262.152V414.636C262.152 412.58 261.618 410.977 260.55 409.83C259.482 408.67 258.016 408.091 256.152 408.091C254.868 408.091 253.72 408.369 252.709 408.926C251.709 409.483 250.919 410.295 250.339 411.364C249.76 412.432 249.47 413.727 249.47 415.25ZM283.412 431.545C281.23 431.545 279.304 430.994 277.634 429.892C275.963 428.778 274.656 427.21 273.713 425.188C272.77 423.153 272.298 420.75 272.298 417.977C272.298 415.227 272.77 412.841 273.713 410.818C274.656 408.795 275.969 407.233 277.651 406.131C279.332 405.028 281.276 404.477 283.48 404.477C285.185 404.477 286.531 404.761 287.52 405.33C288.52 405.886 289.281 406.523 289.804 407.239C290.338 407.943 290.753 408.523 291.048 408.977H291.389V396.091H295.412V431H291.526V426.977H291.048C290.753 427.455 290.332 428.057 289.787 428.784C289.241 429.5 288.463 430.142 287.452 430.71C286.44 431.267 285.094 431.545 283.412 431.545ZM283.957 427.932C285.571 427.932 286.935 427.511 288.048 426.67C289.162 425.818 290.009 424.642 290.588 423.142C291.168 421.631 291.457 419.886 291.457 417.909C291.457 415.955 291.173 414.244 290.605 412.778C290.037 411.301 289.196 410.153 288.082 409.335C286.969 408.506 285.594 408.091 283.957 408.091C282.253 408.091 280.832 408.528 279.696 409.403C278.571 410.267 277.724 411.443 277.156 412.932C276.599 414.409 276.321 416.068 276.321 417.909C276.321 419.773 276.605 421.466 277.173 422.989C277.753 424.5 278.605 425.705 279.73 426.602C280.866 427.489 282.276 427.932 283.957 427.932ZM328.156 431H317.384V396.091H328.634C332.02 396.091 334.918 396.79 337.327 398.188C339.736 399.574 341.582 401.568 342.866 404.17C344.151 406.761 344.793 409.864 344.793 413.477C344.793 417.114 344.145 420.244 342.849 422.869C341.554 425.483 339.668 427.494 337.19 428.903C334.713 430.301 331.702 431 328.156 431ZM321.611 427.25H327.884C330.77 427.25 333.162 426.693 335.06 425.58C336.957 424.466 338.372 422.881 339.304 420.824C340.236 418.767 340.702 416.318 340.702 413.477C340.702 410.659 340.241 408.233 339.321 406.199C338.401 404.153 337.026 402.585 335.196 401.494C333.366 400.392 331.088 399.841 328.361 399.841H321.611V427.25ZM362.315 431.545C359.793 431.545 357.616 430.989 355.787 429.875C353.969 428.75 352.565 427.182 351.577 425.17C350.599 423.148 350.111 420.795 350.111 418.114C350.111 415.432 350.599 413.068 351.577 411.023C352.565 408.966 353.94 407.364 355.702 406.216C357.474 405.057 359.543 404.477 361.906 404.477C363.27 404.477 364.616 404.705 365.946 405.159C367.276 405.614 368.486 406.352 369.577 407.375C370.668 408.386 371.537 409.727 372.185 411.398C372.832 413.068 373.156 415.125 373.156 417.568V419.273H352.974V415.795H369.065C369.065 414.318 368.77 413 368.179 411.841C367.599 410.682 366.77 409.767 365.69 409.097C364.622 408.426 363.361 408.091 361.906 408.091C360.304 408.091 358.918 408.489 357.747 409.284C356.588 410.068 355.696 411.091 355.071 412.352C354.446 413.614 354.134 414.966 354.134 416.409V418.727C354.134 420.705 354.474 422.381 355.156 423.756C355.849 425.119 356.81 426.159 358.037 426.875C359.264 427.58 360.69 427.932 362.315 427.932C363.372 427.932 364.327 427.784 365.179 427.489C366.043 427.182 366.787 426.727 367.412 426.125C368.037 425.511 368.52 424.75 368.861 423.841L372.747 424.932C372.338 426.25 371.651 427.409 370.685 428.409C369.719 429.398 368.526 430.17 367.105 430.727C365.685 431.273 364.088 431.545 362.315 431.545ZM399.888 404.818L390.206 431H386.115L376.433 404.818H380.797L388.024 425.682H388.297L395.524 404.818H399.888ZM415.237 431.545C412.714 431.545 410.538 430.989 408.709 429.875C406.891 428.75 405.487 427.182 404.499 425.17C403.521 423.148 403.033 420.795 403.033 418.114C403.033 415.432 403.521 413.068 404.499 411.023C405.487 408.966 406.862 407.364 408.624 406.216C410.396 405.057 412.464 404.477 414.828 404.477C416.192 404.477 417.538 404.705 418.868 405.159C420.197 405.614 421.408 406.352 422.499 407.375C423.589 408.386 424.459 409.727 425.107 411.398C425.754 413.068 426.078 415.125 426.078 417.568V419.273H405.896V415.795H421.987C421.987 414.318 421.692 413 421.101 411.841C420.521 410.682 419.692 409.767 418.612 409.097C417.544 408.426 416.283 408.091 414.828 408.091C413.226 408.091 411.839 408.489 410.669 409.284C409.51 410.068 408.618 411.091 407.993 412.352C407.368 413.614 407.055 414.966 407.055 416.409V418.727C407.055 420.705 407.396 422.381 408.078 423.756C408.771 425.119 409.732 426.159 410.959 426.875C412.186 427.58 413.612 427.932 415.237 427.932C416.294 427.932 417.249 427.784 418.101 427.489C418.964 427.182 419.709 426.727 420.334 426.125C420.959 425.511 421.442 424.75 421.783 423.841L425.669 424.932C425.26 426.25 424.572 427.409 423.607 428.409C422.641 429.398 421.447 430.17 420.027 430.727C418.607 431.273 417.01 431.545 415.237 431.545ZM436.22 396.091V431H432.197V396.091H436.22ZM454.224 431.545C451.861 431.545 449.787 430.983 448.003 429.858C446.23 428.733 444.844 427.159 443.844 425.136C442.855 423.114 442.361 420.75 442.361 418.045C442.361 415.318 442.855 412.937 443.844 410.903C444.844 408.869 446.23 407.29 448.003 406.165C449.787 405.04 451.861 404.477 454.224 404.477C456.588 404.477 458.656 405.04 460.429 406.165C462.213 407.29 463.599 408.869 464.588 410.903C465.588 412.937 466.088 415.318 466.088 418.045C466.088 420.75 465.588 423.114 464.588 425.136C463.599 427.159 462.213 428.733 460.429 429.858C458.656 430.983 456.588 431.545 454.224 431.545ZM454.224 427.932C456.02 427.932 457.497 427.472 458.656 426.551C459.815 425.631 460.673 424.42 461.23 422.92C461.787 421.42 462.065 419.795 462.065 418.045C462.065 416.295 461.787 414.665 461.23 413.153C460.673 411.642 459.815 410.42 458.656 409.489C457.497 408.557 456.02 408.091 454.224 408.091C452.429 408.091 450.952 408.557 449.793 409.489C448.634 410.42 447.776 411.642 447.219 413.153C446.662 414.665 446.384 416.295 446.384 418.045C446.384 419.795 446.662 421.42 447.219 422.92C447.776 424.42 448.634 425.631 449.793 426.551C450.952 427.472 452.429 427.932 454.224 427.932ZM472.229 440.818V404.818H476.115V408.977H476.592C476.888 408.523 477.297 407.943 477.82 407.239C478.354 406.523 479.115 405.886 480.104 405.33C481.104 404.761 482.456 404.477 484.161 404.477C486.365 404.477 488.308 405.028 489.99 406.131C491.672 407.233 492.984 408.795 493.928 410.818C494.871 412.841 495.342 415.227 495.342 417.977C495.342 420.75 494.871 423.153 493.928 425.188C492.984 427.21 491.678 428.778 490.007 429.892C488.337 430.994 486.411 431.545 484.229 431.545C482.547 431.545 481.2 431.267 480.189 430.71C479.178 430.142 478.399 429.5 477.854 428.784C477.308 428.057 476.888 427.455 476.592 426.977H476.251V440.818H472.229ZM476.183 417.909C476.183 419.886 476.473 421.631 477.053 423.142C477.632 424.642 478.479 425.818 479.592 426.67C480.706 427.511 482.07 427.932 483.683 427.932C485.365 427.932 486.768 427.489 487.893 426.602C489.03 425.705 489.882 424.5 490.45 422.989C491.03 421.466 491.32 419.773 491.32 417.909C491.32 416.068 491.036 414.409 490.467 412.932C489.911 411.443 489.064 410.267 487.928 409.403C486.803 408.528 485.388 408.091 483.683 408.091C482.047 408.091 480.672 408.506 479.558 409.335C478.445 410.153 477.604 411.301 477.036 412.778C476.467 414.244 476.183 415.955 476.183 417.909ZM512.456 431.545C509.933 431.545 507.757 430.989 505.928 429.875C504.109 428.75 502.706 427.182 501.717 425.17C500.74 423.148 500.251 420.795 500.251 418.114C500.251 415.432 500.74 413.068 501.717 411.023C502.706 408.966 504.081 407.364 505.842 406.216C507.615 405.057 509.683 404.477 512.047 404.477C513.411 404.477 514.757 404.705 516.087 405.159C517.416 405.614 518.626 406.352 519.717 407.375C520.808 408.386 521.678 409.727 522.325 411.398C522.973 413.068 523.297 415.125 523.297 417.568V419.273H503.115V415.795H519.206C519.206 414.318 518.911 413 518.32 411.841C517.74 410.682 516.911 409.767 515.831 409.097C514.763 408.426 513.501 408.091 512.047 408.091C510.445 408.091 509.058 408.489 507.888 409.284C506.729 410.068 505.837 411.091 505.212 412.352C504.587 413.614 504.274 414.966 504.274 416.409V418.727C504.274 420.705 504.615 422.381 505.297 423.756C505.99 425.119 506.95 426.159 508.178 426.875C509.405 427.58 510.831 427.932 512.456 427.932C513.513 427.932 514.467 427.784 515.32 427.489C516.183 427.182 516.928 426.727 517.553 426.125C518.178 425.511 518.661 424.75 519.001 423.841L522.888 424.932C522.479 426.25 521.791 427.409 520.825 428.409C519.859 429.398 518.666 430.17 517.246 430.727C515.825 431.273 514.229 431.545 512.456 431.545ZM529.416 431V404.818H533.303V408.773H533.575C534.053 407.477 534.916 406.426 536.166 405.619C537.416 404.812 538.825 404.409 540.393 404.409C540.689 404.409 541.058 404.415 541.501 404.426C541.945 404.437 542.28 404.455 542.507 404.477V408.568C542.371 408.534 542.058 408.483 541.57 408.415C541.092 408.335 540.587 408.295 540.053 408.295C538.78 408.295 537.643 408.562 536.643 409.097C535.655 409.619 534.871 410.347 534.291 411.278C533.723 412.199 533.439 413.25 533.439 414.432V431H529.416ZM550.276 426.227L550.003 428.068C549.81 429.364 549.514 430.75 549.116 432.227C548.73 433.705 548.327 435.097 547.906 436.403C547.486 437.71 547.139 438.75 546.866 439.523H543.798C543.946 438.795 544.139 437.835 544.378 436.642C544.616 435.449 544.855 434.114 545.094 432.636C545.344 431.17 545.548 429.67 545.707 428.136L545.912 426.227H550.276ZM582.206 431.545C579.683 431.545 577.507 430.989 575.678 429.875C573.859 428.75 572.456 427.182 571.467 425.17C570.49 423.148 570.001 420.795 570.001 418.114C570.001 415.432 570.49 413.068 571.467 411.023C572.456 408.966 573.831 407.364 575.592 406.216C577.365 405.057 579.433 404.477 581.797 404.477C583.161 404.477 584.507 404.705 585.837 405.159C587.166 405.614 588.376 406.352 589.467 407.375C590.558 408.386 591.428 409.727 592.075 411.398C592.723 413.068 593.047 415.125 593.047 417.568V419.273H572.865V415.795H588.956C588.956 414.318 588.661 413 588.07 411.841C587.49 410.682 586.661 409.767 585.581 409.097C584.513 408.426 583.251 408.091 581.797 408.091C580.195 408.091 578.808 408.489 577.638 409.284C576.479 410.068 575.587 411.091 574.962 412.352C574.337 413.614 574.024 414.966 574.024 416.409V418.727C574.024 420.705 574.365 422.381 575.047 423.756C575.74 425.119 576.7 426.159 577.928 426.875C579.155 427.58 580.581 427.932 582.206 427.932C583.263 427.932 584.217 427.784 585.07 427.489C585.933 427.182 586.678 426.727 587.303 426.125C587.928 425.511 588.411 424.75 588.751 423.841L592.638 424.932C592.229 426.25 591.541 427.409 590.575 428.409C589.609 429.398 588.416 430.17 586.996 430.727C585.575 431.273 583.979 431.545 582.206 431.545ZM617.712 410.682L614.098 411.705C613.871 411.102 613.536 410.517 613.092 409.949C612.661 409.369 612.07 408.892 611.32 408.517C610.57 408.142 609.609 407.955 608.439 407.955C606.837 407.955 605.501 408.324 604.433 409.062C603.376 409.79 602.848 410.716 602.848 411.841C602.848 412.841 603.212 413.631 603.939 414.21C604.666 414.79 605.803 415.273 607.348 415.659L611.234 416.614C613.575 417.182 615.32 418.051 616.467 419.222C617.615 420.381 618.189 421.875 618.189 423.705C618.189 425.205 617.757 426.545 616.893 427.727C616.041 428.909 614.848 429.841 613.314 430.523C611.78 431.205 609.996 431.545 607.962 431.545C605.291 431.545 603.081 430.966 601.331 429.807C599.581 428.648 598.473 426.955 598.007 424.727L601.825 423.773C602.189 425.182 602.876 426.239 603.888 426.943C604.911 427.648 606.246 428 607.893 428C609.768 428 611.257 427.602 612.359 426.807C613.473 426 614.03 425.034 614.03 423.909C614.03 423 613.712 422.239 613.075 421.625C612.439 421 611.462 420.534 610.143 420.227L605.78 419.205C603.382 418.636 601.621 417.756 600.496 416.562C599.382 415.358 598.825 413.852 598.825 412.045C598.825 410.568 599.24 409.261 600.07 408.125C600.911 406.989 602.053 406.097 603.496 405.449C604.95 404.801 606.598 404.477 608.439 404.477C611.03 404.477 613.064 405.045 614.541 406.182C616.03 407.318 617.087 408.818 617.712 410.682ZM624.244 440.818V404.818H628.131V408.977H628.608C628.903 408.523 629.313 407.943 629.835 407.239C630.369 406.523 631.131 405.886 632.119 405.33C633.119 404.761 634.472 404.477 636.176 404.477C638.381 404.477 640.324 405.028 642.006 406.131C643.688 407.233 645 408.795 645.943 410.818C646.886 412.841 647.358 415.227 647.358 417.977C647.358 420.75 646.886 423.153 645.943 425.188C645 427.21 643.693 428.778 642.023 429.892C640.352 430.994 638.426 431.545 636.244 431.545C634.563 431.545 633.216 431.267 632.205 430.71C631.193 430.142 630.415 429.5 629.869 428.784C629.324 428.057 628.903 427.455 628.608 426.977H628.267V440.818H624.244ZM628.199 417.909C628.199 419.886 628.489 421.631 629.068 423.142C629.648 424.642 630.494 425.818 631.608 426.67C632.722 427.511 634.085 427.932 635.699 427.932C637.381 427.932 638.784 427.489 639.909 426.602C641.045 425.705 641.898 424.5 642.466 422.989C643.045 421.466 643.335 419.773 643.335 417.909C643.335 416.068 643.051 414.409 642.483 412.932C641.926 411.443 641.08 410.267 639.943 409.403C638.818 408.528 637.403 408.091 635.699 408.091C634.063 408.091 632.688 408.506 631.574 409.335C630.46 410.153 629.619 411.301 629.051 412.778C628.483 414.244 628.199 415.955 628.199 417.909ZM664.472 431.545C661.949 431.545 659.773 430.989 657.943 429.875C656.125 428.75 654.722 427.182 653.733 425.17C652.756 423.148 652.267 420.795 652.267 418.114C652.267 415.432 652.756 413.068 653.733 411.023C654.722 408.966 656.097 407.364 657.858 406.216C659.631 405.057 661.699 404.477 664.062 404.477C665.426 404.477 666.773 404.705 668.102 405.159C669.432 405.614 670.642 406.352 671.733 407.375C672.824 408.386 673.693 409.727 674.341 411.398C674.989 413.068 675.312 415.125 675.312 417.568V419.273H655.131V415.795H671.222C671.222 414.318 670.926 413 670.335 411.841C669.756 410.682 668.926 409.767 667.847 409.097C666.778 408.426 665.517 408.091 664.062 408.091C662.46 408.091 661.074 408.489 659.903 409.284C658.744 410.068 657.852 411.091 657.227 412.352C656.602 413.614 656.29 414.966 656.29 416.409V418.727C656.29 420.705 656.631 422.381 657.312 423.756C658.006 425.119 658.966 426.159 660.193 426.875C661.42 427.58 662.847 427.932 664.472 427.932C665.528 427.932 666.483 427.784 667.335 427.489C668.199 427.182 668.943 426.727 669.568 426.125C670.193 425.511 670.676 424.75 671.017 423.841L674.903 424.932C674.494 426.25 673.807 427.409 672.841 428.409C671.875 429.398 670.682 430.17 669.261 430.727C667.841 431.273 666.244 431.545 664.472 431.545ZM692.068 431.545C689.614 431.545 687.5 430.966 685.727 429.807C683.955 428.648 682.591 427.051 681.636 425.017C680.682 422.983 680.205 420.659 680.205 418.045C680.205 415.386 680.693 413.04 681.67 411.006C682.659 408.96 684.034 407.364 685.795 406.216C687.568 405.057 689.636 404.477 692 404.477C693.841 404.477 695.5 404.818 696.977 405.5C698.455 406.182 699.665 407.136 700.608 408.364C701.551 409.591 702.136 411.023 702.364 412.659H698.341C698.034 411.466 697.352 410.409 696.295 409.489C695.25 408.557 693.841 408.091 692.068 408.091C690.5 408.091 689.125 408.5 687.943 409.318C686.773 410.125 685.858 411.267 685.199 412.744C684.551 414.21 684.227 415.932 684.227 417.909C684.227 419.932 684.545 421.693 685.182 423.193C685.83 424.693 686.739 425.858 687.909 426.688C689.091 427.517 690.477 427.932 692.068 427.932C693.114 427.932 694.062 427.75 694.915 427.386C695.767 427.023 696.489 426.5 697.08 425.818C697.67 425.136 698.091 424.318 698.341 423.364H702.364C702.136 424.909 701.574 426.301 700.676 427.54C699.79 428.767 698.614 429.744 697.148 430.472C695.693 431.188 694 431.545 692.068 431.545ZM708.244 431V404.818H712.267V431H708.244ZM710.29 400.455C709.506 400.455 708.83 400.188 708.261 399.653C707.705 399.119 707.426 398.477 707.426 397.727C707.426 396.977 707.705 396.335 708.261 395.801C708.83 395.267 709.506 395 710.29 395C711.074 395 711.744 395.267 712.301 395.801C712.869 396.335 713.153 396.977 713.153 397.727C713.153 398.477 712.869 399.119 712.301 399.653C711.744 400.188 711.074 400.455 710.29 400.455ZM727.339 431.614C725.68 431.614 724.175 431.301 722.822 430.676C721.47 430.04 720.396 429.125 719.601 427.932C718.805 426.727 718.408 425.273 718.408 423.568C718.408 422.068 718.703 420.852 719.294 419.92C719.885 418.977 720.675 418.239 721.663 417.705C722.652 417.17 723.743 416.773 724.936 416.511C726.141 416.239 727.351 416.023 728.567 415.864C730.158 415.659 731.447 415.506 732.436 415.403C733.436 415.29 734.163 415.102 734.618 414.841C735.084 414.58 735.317 414.125 735.317 413.477V413.341C735.317 411.659 734.857 410.352 733.936 409.42C733.027 408.489 731.646 408.023 729.794 408.023C727.874 408.023 726.368 408.443 725.277 409.284C724.186 410.125 723.419 411.023 722.976 411.977L719.158 410.614C719.839 409.023 720.749 407.784 721.885 406.898C723.033 406 724.283 405.375 725.635 405.023C726.999 404.659 728.339 404.477 729.658 404.477C730.499 404.477 731.464 404.58 732.555 404.784C733.658 404.977 734.72 405.381 735.743 405.994C736.777 406.608 737.635 407.534 738.317 408.773C738.999 410.011 739.339 411.67 739.339 413.75V431H735.317V427.455H735.112C734.839 428.023 734.385 428.631 733.749 429.278C733.112 429.926 732.266 430.477 731.209 430.932C730.152 431.386 728.862 431.614 727.339 431.614ZM727.953 428C729.544 428 730.885 427.688 731.976 427.062C733.078 426.438 733.908 425.631 734.464 424.642C735.033 423.653 735.317 422.614 735.317 421.523V417.841C735.146 418.045 734.771 418.233 734.192 418.403C733.624 418.562 732.964 418.705 732.214 418.83C731.476 418.943 730.754 419.045 730.05 419.136C729.357 419.216 728.794 419.284 728.362 419.341C727.317 419.477 726.339 419.699 725.43 420.006C724.533 420.301 723.805 420.75 723.249 421.352C722.703 421.943 722.43 422.75 722.43 423.773C722.43 425.17 722.947 426.227 723.982 426.943C725.027 427.648 726.351 428 727.953 428ZM750.705 396.091V431H746.682V396.091H750.705ZM762.095 396.091V431H758.072V396.091H762.095ZM772.054 440.818C771.372 440.818 770.764 440.761 770.23 440.648C769.696 440.545 769.327 440.443 769.122 440.341L770.145 436.795C771.122 437.045 771.986 437.136 772.736 437.068C773.486 437 774.151 436.665 774.73 436.062C775.321 435.472 775.861 434.511 776.349 433.182L777.099 431.136L767.418 404.818H771.781L779.009 425.682H779.281L786.509 404.818H790.872L779.759 434.818C779.259 436.17 778.639 437.29 777.901 438.176C777.162 439.074 776.304 439.739 775.327 440.17C774.361 440.602 773.27 440.818 772.054 440.818ZM809.682 431V404.818H813.705V431H809.682ZM811.727 400.455C810.943 400.455 810.267 400.188 809.699 399.653C809.142 399.119 808.864 398.477 808.864 397.727C808.864 396.977 809.142 396.335 809.699 395.801C810.267 395.267 810.943 395 811.727 395C812.511 395 813.182 395.267 813.739 395.801C814.307 396.335 814.591 396.977 814.591 397.727C814.591 398.477 814.307 399.119 813.739 399.653C813.182 400.188 812.511 400.455 811.727 400.455ZM832.732 404.818V408.227H818.618V404.818H832.732ZM822.845 431V401.205C822.845 399.705 823.197 398.455 823.902 397.455C824.607 396.455 825.521 395.705 826.646 395.205C827.771 394.705 828.959 394.455 830.209 394.455C831.197 394.455 832.004 394.534 832.629 394.693C833.254 394.852 833.72 395 834.027 395.136L832.868 398.614C832.663 398.545 832.379 398.46 832.016 398.358C831.663 398.256 831.197 398.205 830.618 398.205C829.288 398.205 828.328 398.54 827.737 399.21C827.158 399.881 826.868 400.864 826.868 402.159V431H822.845ZM851.869 431V404.818H855.892V431H851.869ZM853.915 400.455C853.131 400.455 852.455 400.188 851.886 399.653C851.33 399.119 851.051 398.477 851.051 397.727C851.051 396.977 851.33 396.335 851.886 395.801C852.455 395.267 853.131 395 853.915 395C854.699 395 855.369 395.267 855.926 395.801C856.494 396.335 856.778 396.977 856.778 397.727C856.778 398.477 856.494 399.119 855.926 399.653C855.369 400.188 854.699 400.455 853.915 400.455ZM874.646 404.818V408.227H861.078V404.818H874.646ZM865.033 398.545H869.055V423.5C869.055 424.636 869.22 425.489 869.55 426.057C869.891 426.614 870.322 426.989 870.845 427.182C871.379 427.364 871.942 427.455 872.533 427.455C872.976 427.455 873.339 427.432 873.624 427.386C873.908 427.33 874.135 427.284 874.305 427.25L875.124 430.864C874.851 430.966 874.47 431.068 873.982 431.17C873.493 431.284 872.874 431.341 872.124 431.341C870.987 431.341 869.874 431.097 868.783 430.608C867.703 430.119 866.805 429.375 866.089 428.375C865.385 427.375 865.033 426.114 865.033 424.591V398.545ZM894.197 431V404.818H898.22V431H894.197ZM896.243 400.455C895.459 400.455 894.783 400.188 894.214 399.653C893.658 399.119 893.379 398.477 893.379 397.727C893.379 396.977 893.658 396.335 894.214 395.801C894.783 395.267 895.459 395 896.243 395C897.027 395 897.697 395.267 898.254 395.801C898.822 396.335 899.107 396.977 899.107 397.727C899.107 398.477 898.822 399.119 898.254 399.653C897.697 400.188 897.027 400.455 896.243 400.455ZM924.134 410.682L920.52 411.705C920.293 411.102 919.957 410.517 919.514 409.949C919.082 409.369 918.491 408.892 917.741 408.517C916.991 408.142 916.031 407.955 914.861 407.955C913.259 407.955 911.923 408.324 910.855 409.062C909.798 409.79 909.27 410.716 909.27 411.841C909.27 412.841 909.634 413.631 910.361 414.21C911.088 414.79 912.224 415.273 913.77 415.659L917.656 416.614C919.997 417.182 921.741 418.051 922.889 419.222C924.037 420.381 924.611 421.875 924.611 423.705C924.611 425.205 924.179 426.545 923.315 427.727C922.463 428.909 921.27 429.841 919.736 430.523C918.202 431.205 916.418 431.545 914.384 431.545C911.713 431.545 909.503 430.966 907.753 429.807C906.003 428.648 904.895 426.955 904.429 424.727L908.247 423.773C908.611 425.182 909.298 426.239 910.31 426.943C911.332 427.648 912.668 428 914.315 428C916.19 428 917.679 427.602 918.781 426.807C919.895 426 920.452 425.034 920.452 423.909C920.452 423 920.134 422.239 919.497 421.625C918.861 421 917.884 420.534 916.565 420.227L912.202 419.205C909.804 418.636 908.043 417.756 906.918 416.562C905.804 415.358 905.247 413.852 905.247 412.045C905.247 410.568 905.662 409.261 906.491 408.125C907.332 406.989 908.474 406.097 909.918 405.449C911.372 404.801 913.02 404.477 914.861 404.477C917.452 404.477 919.486 405.045 920.963 406.182C922.452 407.318 923.509 408.818 924.134 410.682ZM944.166 431V404.818H948.053V408.773H948.325C948.803 407.477 949.666 406.426 950.916 405.619C952.166 404.812 953.575 404.409 955.143 404.409C955.439 404.409 955.808 404.415 956.251 404.426C956.695 404.437 957.03 404.455 957.257 404.477V408.568C957.121 408.534 956.808 408.483 956.32 408.415C955.842 408.335 955.337 408.295 954.803 408.295C953.53 408.295 952.393 408.562 951.393 409.097C950.405 409.619 949.621 410.347 949.041 411.278C948.473 412.199 948.189 413.25 948.189 414.432V431H944.166ZM972.206 431.545C969.683 431.545 967.507 430.989 965.678 429.875C963.859 428.75 962.456 427.182 961.467 425.17C960.49 423.148 960.001 420.795 960.001 418.114C960.001 415.432 960.49 413.068 961.467 411.023C962.456 408.966 963.831 407.364 965.592 406.216C967.365 405.057 969.433 404.477 971.797 404.477C973.161 404.477 974.507 404.705 975.837 405.159C977.166 405.614 978.376 406.352 979.467 407.375C980.558 408.386 981.428 409.727 982.075 411.398C982.723 413.068 983.047 415.125 983.047 417.568V419.273H962.865V415.795H978.956C978.956 414.318 978.661 413 978.07 411.841C977.49 410.682 976.661 409.767 975.581 409.097C974.513 408.426 973.251 408.091 971.797 408.091C970.195 408.091 968.808 408.489 967.638 409.284C966.479 410.068 965.587 411.091 964.962 412.352C964.337 413.614 964.024 414.966 964.024 416.409V418.727C964.024 420.705 964.365 422.381 965.047 423.756C965.74 425.119 966.7 426.159 967.928 426.875C969.155 427.58 970.581 427.932 972.206 427.932C973.263 427.932 974.217 427.784 975.07 427.489C975.933 427.182 976.678 426.727 977.303 426.125C977.928 425.511 978.411 424.75 978.751 423.841L982.638 424.932C982.229 426.25 981.541 427.409 980.575 428.409C979.609 429.398 978.416 430.17 976.996 430.727C975.575 431.273 973.979 431.545 972.206 431.545ZM993.189 396.091V431H989.166V396.091H993.189ZM1011.53 431.545C1009.01 431.545 1006.84 430.989 1005.01 429.875C1003.19 428.75 1001.78 427.182 1000.8 425.17C999.818 423.148 999.33 420.795 999.33 418.114C999.33 415.432 999.818 413.068 1000.8 411.023C1001.78 408.966 1003.16 407.364 1004.92 406.216C1006.69 405.057 1008.76 404.477 1011.12 404.477C1012.49 404.477 1013.84 404.705 1015.16 405.159C1016.49 405.614 1017.7 406.352 1018.8 407.375C1019.89 408.386 1020.76 409.727 1021.4 411.398C1022.05 413.068 1022.38 415.125 1022.38 417.568V419.273H1002.19V415.795H1018.28C1018.28 414.318 1017.99 413 1017.4 411.841C1016.82 410.682 1015.99 409.767 1014.91 409.097C1013.84 408.426 1012.58 408.091 1011.12 408.091C1009.52 408.091 1008.14 408.489 1006.97 409.284C1005.81 410.068 1004.91 411.091 1004.29 412.352C1003.66 413.614 1003.35 414.966 1003.35 416.409V418.727C1003.35 420.705 1003.69 422.381 1004.38 423.756C1005.07 425.119 1006.03 426.159 1007.26 426.875C1008.48 427.58 1009.91 427.932 1011.53 427.932C1012.59 427.932 1013.55 427.784 1014.4 427.489C1015.26 427.182 1016.01 426.727 1016.63 426.125C1017.26 425.511 1017.74 424.75 1018.08 423.841L1021.97 424.932C1021.56 426.25 1020.87 427.409 1019.9 428.409C1018.94 429.398 1017.74 430.17 1016.32 430.727C1014.9 431.273 1013.31 431.545 1011.53 431.545ZM1049.11 404.818L1039.42 431H1035.33L1025.65 404.818H1030.02L1037.24 425.682H1037.52L1044.74 404.818H1049.11ZM1061.32 431.614C1059.66 431.614 1058.16 431.301 1056.81 430.676C1055.45 430.04 1054.38 429.125 1053.59 427.932C1052.79 426.727 1052.39 425.273 1052.39 423.568C1052.39 422.068 1052.69 420.852 1053.28 419.92C1053.87 418.977 1054.66 418.239 1055.65 417.705C1056.64 417.17 1057.73 416.773 1058.92 416.511C1060.13 416.239 1061.34 416.023 1062.55 415.864C1064.14 415.659 1065.43 415.506 1066.42 415.403C1067.42 415.29 1068.15 415.102 1068.6 414.841C1069.07 414.58 1069.3 414.125 1069.3 413.477V413.341C1069.3 411.659 1068.84 410.352 1067.92 409.42C1067.01 408.489 1065.63 408.023 1063.78 408.023C1061.86 408.023 1060.35 408.443 1059.26 409.284C1058.17 410.125 1057.4 411.023 1056.96 411.977L1053.14 410.614C1053.82 409.023 1054.73 407.784 1055.87 406.898C1057.02 406 1058.27 405.375 1059.62 405.023C1060.98 404.659 1062.32 404.477 1063.64 404.477C1064.48 404.477 1065.45 404.58 1066.54 404.784C1067.64 404.977 1068.7 405.381 1069.73 405.994C1070.76 406.608 1071.62 407.534 1072.3 408.773C1072.98 410.011 1073.32 411.67 1073.32 413.75V431H1069.3V427.455H1069.1C1068.82 428.023 1068.37 428.631 1067.73 429.278C1067.1 429.926 1066.25 430.477 1065.19 430.932C1064.14 431.386 1062.85 431.614 1061.32 431.614ZM1061.94 428C1063.53 428 1064.87 427.688 1065.96 427.062C1067.06 426.438 1067.89 425.631 1068.45 424.642C1069.02 423.653 1069.3 422.614 1069.3 421.523V417.841C1069.13 418.045 1068.76 418.233 1068.18 418.403C1067.61 418.562 1066.95 418.705 1066.2 418.83C1065.46 418.943 1064.74 419.045 1064.03 419.136C1063.34 419.216 1062.78 419.284 1062.35 419.341C1061.3 419.477 1060.32 419.699 1059.41 420.006C1058.52 420.301 1057.79 420.75 1057.23 421.352C1056.69 421.943 1056.41 422.75 1056.41 423.773C1056.41 425.17 1056.93 426.227 1057.97 426.943C1059.01 427.648 1060.34 428 1061.94 428ZM1084.69 415.25V431H1080.67V404.818H1084.55V408.909H1084.89C1085.51 407.58 1086.44 406.511 1087.69 405.705C1088.94 404.886 1090.55 404.477 1092.53 404.477C1094.3 404.477 1095.85 404.841 1097.18 405.568C1098.51 406.284 1099.55 407.375 1100.29 408.841C1101.02 410.295 1101.39 412.136 1101.39 414.364V431H1097.37V414.636C1097.37 412.58 1096.84 410.977 1095.77 409.83C1094.7 408.67 1093.23 408.091 1091.37 408.091C1090.09 408.091 1088.94 408.369 1087.93 408.926C1086.93 409.483 1086.14 410.295 1085.56 411.364C1084.98 412.432 1084.69 413.727 1084.69 415.25ZM1120.13 404.818V408.227H1106.56V404.818H1120.13ZM1110.52 398.545H1114.54V423.5C1114.54 424.636 1114.7 425.489 1115.03 426.057C1115.38 426.614 1115.81 426.989 1116.33 427.182C1116.86 427.364 1117.43 427.455 1118.02 427.455C1118.46 427.455 1118.82 427.432 1119.11 427.386C1119.39 427.33 1119.62 427.284 1119.79 427.25L1120.61 430.864C1120.34 430.966 1119.95 431.068 1119.47 431.17C1118.98 431.284 1118.36 431.341 1117.61 431.341C1116.47 431.341 1115.36 431.097 1114.27 430.608C1113.19 430.119 1112.29 429.375 1111.57 428.375C1110.87 427.375 1110.52 426.114 1110.52 424.591V398.545ZM1151.07 404.818V408.227H1137.5V404.818H1151.07ZM1141.45 398.545H1145.48V423.5C1145.48 424.636 1145.64 425.489 1145.97 426.057C1146.31 426.614 1146.74 426.989 1147.27 427.182C1147.8 427.364 1148.36 427.455 1148.95 427.455C1149.4 427.455 1149.76 427.432 1150.05 427.386C1150.33 427.33 1150.56 427.284 1150.73 427.25L1151.55 430.864C1151.27 430.966 1150.89 431.068 1150.4 431.17C1149.91 431.284 1149.3 431.341 1148.55 431.341C1147.41 431.341 1146.3 431.097 1145.2 430.608C1144.13 430.119 1143.23 429.375 1142.51 428.375C1141.81 427.375 1141.45 426.114 1141.45 424.591V398.545ZM1167.47 431.545C1165.11 431.545 1163.04 430.983 1161.25 429.858C1159.48 428.733 1158.09 427.159 1157.09 425.136C1156.11 423.114 1155.61 420.75 1155.61 418.045C1155.61 415.318 1156.11 412.937 1157.09 410.903C1158.09 408.869 1159.48 407.29 1161.25 406.165C1163.04 405.04 1165.11 404.477 1167.47 404.477C1169.84 404.477 1171.91 405.04 1173.68 406.165C1175.46 407.29 1176.85 408.869 1177.84 410.903C1178.84 412.937 1179.34 415.318 1179.34 418.045C1179.34 420.75 1178.84 423.114 1177.84 425.136C1176.85 427.159 1175.46 428.733 1173.68 429.858C1171.91 430.983 1169.84 431.545 1167.47 431.545ZM1167.47 427.932C1169.27 427.932 1170.75 427.472 1171.91 426.551C1173.07 425.631 1173.92 424.42 1174.48 422.92C1175.04 421.42 1175.32 419.795 1175.32 418.045C1175.32 416.295 1175.04 414.665 1174.48 413.153C1173.92 411.642 1173.07 410.42 1171.91 409.489C1170.75 408.557 1169.27 408.091 1167.47 408.091C1165.68 408.091 1164.2 408.557 1163.04 409.489C1161.88 410.42 1161.03 411.642 1160.47 413.153C1159.91 414.665 1159.63 416.295 1159.63 418.045C1159.63 419.795 1159.91 421.42 1160.47 422.92C1161.03 424.42 1161.88 425.631 1163.04 426.551C1164.2 427.472 1165.68 427.932 1167.47 427.932ZM99.2273 508V473.091H111.023C113.75 473.091 115.989 473.557 117.739 474.489C119.489 475.409 120.784 476.676 121.625 478.29C122.466 479.903 122.886 481.739 122.886 483.795C122.886 485.852 122.466 487.676 121.625 489.267C120.784 490.858 119.494 492.108 117.756 493.017C116.017 493.915 113.795 494.364 111.091 494.364H101.545V490.545H110.955C112.818 490.545 114.318 490.273 115.455 489.727C116.602 489.182 117.432 488.409 117.943 487.409C118.466 486.398 118.727 485.193 118.727 483.795C118.727 482.398 118.466 481.176 117.943 480.131C117.42 479.085 116.585 478.278 115.438 477.71C114.29 477.131 112.773 476.841 110.886 476.841H103.455V508H99.2273ZM115.659 492.318L124.25 508H119.341L110.886 492.318H115.659ZM140.081 508.545C137.558 508.545 135.382 507.989 133.553 506.875C131.734 505.75 130.331 504.182 129.342 502.17C128.365 500.148 127.876 497.795 127.876 495.114C127.876 492.432 128.365 490.068 129.342 488.023C130.331 485.966 131.706 484.364 133.467 483.216C135.24 482.057 137.308 481.477 139.672 481.477C141.036 481.477 142.382 481.705 143.712 482.159C145.041 482.614 146.251 483.352 147.342 484.375C148.433 485.386 149.303 486.727 149.95 488.398C150.598 490.068 150.922 492.125 150.922 494.568V496.273H130.74V492.795H146.831C146.831 491.318 146.536 490 145.945 488.841C145.365 487.682 144.536 486.767 143.456 486.097C142.388 485.426 141.126 485.091 139.672 485.091C138.07 485.091 136.683 485.489 135.513 486.284C134.354 487.068 133.462 488.091 132.837 489.352C132.212 490.614 131.899 491.966 131.899 493.409V495.727C131.899 497.705 132.24 499.381 132.922 500.756C133.615 502.119 134.575 503.159 135.803 503.875C137.03 504.58 138.456 504.932 140.081 504.932C141.138 504.932 142.092 504.784 142.945 504.489C143.808 504.182 144.553 503.727 145.178 503.125C145.803 502.511 146.286 501.75 146.626 500.841L150.513 501.932C150.104 503.25 149.416 504.409 148.45 505.409C147.484 506.398 146.291 507.17 144.871 507.727C143.45 508.273 141.854 508.545 140.081 508.545ZM164.746 508.614C163.087 508.614 161.581 508.301 160.229 507.676C158.876 507.04 157.803 506.125 157.007 504.932C156.212 503.727 155.814 502.273 155.814 500.568C155.814 499.068 156.109 497.852 156.7 496.92C157.291 495.977 158.081 495.239 159.07 494.705C160.058 494.17 161.149 493.773 162.342 493.511C163.547 493.239 164.757 493.023 165.973 492.864C167.564 492.659 168.854 492.506 169.842 492.403C170.842 492.29 171.57 492.102 172.024 491.841C172.49 491.58 172.723 491.125 172.723 490.477V490.341C172.723 488.659 172.263 487.352 171.342 486.42C170.433 485.489 169.053 485.023 167.2 485.023C165.28 485.023 163.774 485.443 162.683 486.284C161.592 487.125 160.825 488.023 160.382 488.977L156.564 487.614C157.246 486.023 158.155 484.784 159.291 483.898C160.439 483 161.689 482.375 163.041 482.023C164.405 481.659 165.746 481.477 167.064 481.477C167.905 481.477 168.871 481.58 169.962 481.784C171.064 481.977 172.126 482.381 173.149 482.994C174.183 483.608 175.041 484.534 175.723 485.773C176.405 487.011 176.746 488.67 176.746 490.75V508H172.723V504.455H172.518C172.246 505.023 171.791 505.631 171.155 506.278C170.518 506.926 169.672 507.477 168.615 507.932C167.558 508.386 166.268 508.614 164.746 508.614ZM165.359 505C166.95 505 168.291 504.688 169.382 504.062C170.484 503.438 171.314 502.631 171.871 501.642C172.439 500.653 172.723 499.614 172.723 498.523V494.841C172.553 495.045 172.178 495.233 171.598 495.403C171.03 495.562 170.371 495.705 169.621 495.83C168.882 495.943 168.161 496.045 167.456 496.136C166.763 496.216 166.2 496.284 165.768 496.341C164.723 496.477 163.746 496.699 162.837 497.006C161.939 497.301 161.212 497.75 160.655 498.352C160.109 498.943 159.837 499.75 159.837 500.773C159.837 502.17 160.354 503.227 161.388 503.943C162.433 504.648 163.757 505 165.359 505ZM194.724 508.545C192.27 508.545 190.156 507.966 188.384 506.807C186.611 505.648 185.247 504.051 184.293 502.017C183.338 499.983 182.861 497.659 182.861 495.045C182.861 492.386 183.349 490.04 184.327 488.006C185.315 485.96 186.69 484.364 188.452 483.216C190.224 482.057 192.293 481.477 194.656 481.477C196.497 481.477 198.156 481.818 199.634 482.5C201.111 483.182 202.321 484.136 203.264 485.364C204.207 486.591 204.793 488.023 205.02 489.659H200.997C200.69 488.466 200.009 487.409 198.952 486.489C197.906 485.557 196.497 485.091 194.724 485.091C193.156 485.091 191.781 485.5 190.599 486.318C189.429 487.125 188.514 488.267 187.855 489.744C187.207 491.21 186.884 492.932 186.884 494.909C186.884 496.932 187.202 498.693 187.838 500.193C188.486 501.693 189.395 502.858 190.565 503.688C191.747 504.517 193.134 504.932 194.724 504.932C195.77 504.932 196.719 504.75 197.571 504.386C198.423 504.023 199.145 503.5 199.736 502.818C200.327 502.136 200.747 501.318 200.997 500.364H205.02C204.793 501.909 204.23 503.301 203.332 504.54C202.446 505.767 201.27 506.744 199.804 507.472C198.349 508.188 196.656 508.545 194.724 508.545ZM222.287 481.818V485.227H208.719V481.818H222.287ZM212.673 475.545H216.696V500.5C216.696 501.636 216.861 502.489 217.19 503.057C217.531 503.614 217.963 503.989 218.486 504.182C219.02 504.364 219.582 504.455 220.173 504.455C220.616 504.455 220.98 504.432 221.264 504.386C221.548 504.33 221.776 504.284 221.946 504.25L222.764 507.864C222.491 507.966 222.111 508.068 221.622 508.17C221.134 508.284 220.514 508.341 219.764 508.341C218.628 508.341 217.514 508.097 216.423 507.608C215.344 507.119 214.446 506.375 213.73 505.375C213.026 504.375 212.673 503.114 212.673 501.591V475.545ZM238.156 511.36H286.156V463.36H238.156V511.36Z" fill="white"/>
</svg>
